# xmcd
#
# Track frame offsets:
#	150
#	13798
#	28481
#	40808
#	58869
#	73310
#	86805
#	102866
#	121429
#	135877
#	157733
#
# Disc length: 2309 seconds
#
# Revision: 0
# Processed by: cddbd v1.4PL0 Copyright (c) Steve Scherf et al.
# Submitted via: EasyCDDAExtractor 4.6.9.1
#
DISCID=9409030b
DTITLE=Paula Comeau - Hommage A La Musique Country
DYEAR=2002
DGENRE=Country
TTITLE0=Mommage A la Musique Country
TTITLE1=Oh! Ma Mere
TTITLE2=Tiny Blue Transistor Radio
TTITLE3=Si Tu Le Vois
TTITLE4=Crois Pas Que J'Vais Pleurer
TTITLE5=Storm Of Love
TTITLE6=Petite Jenny
TTITLE7=Loving Dream
TTITLE8=Tout Les Petits Reves
TTITLE9=Un Verre Sur La Table/Que La Lune Est Belle Ce Soir
TTITLE10=The Bed You Made For Me
EXTD=
EXTT0=
EXTT1=
EXTT2=
EXTT3=
EXTT4=
EXTT5=
EXTT6=
EXTT7=
EXTT8=
EXTT9=
EXTT10=
PLAYORDER=
